<?xml version="1.0" encoding="UTF-8" standalone="no" ?>
<!DOCTYPE svg PUBLIC "-//W3C//DTD SVG 1.1//EN" "http://www.w3.org/Graphics/SVG/1.1/DTD/svg11.dtd">
<svg xmlns="http://www.w3.org/2000/svg" xmlns:xlink="http://www.w3.org/1999/xlink" version="1.1" width="640" height="480" viewBox="0 0 640 480" xml:space="preserve">
<desc>Created with Fabric.js 3.6.6</desc>
<defs>
</defs>
<g transform="matrix(1.99 0 0 1.99 315.79 303.29)"  >
<g style=""   >
		<g transform="matrix(1 0 0 1 0 -43.85)"  >
<linearGradient id="SVGID_19" gradientUnits="objectBoundingBox" gradientTransform="matrix(1 0 0 1 128 84.15)"  x1="0.379725688" y1="0.169988952" x2="0.911208363" y2="0.763260008">
<stop offset="0%" style="stop-color:rgb(201,203,206);stop-opacity: 1"/>
<stop offset="100%" style="stop-color:rgb(123,122,129);stop-opacity: 1"/>
</linearGradient>
<path style="stroke: rgb(0,0,0); stroke-width: 0; stroke-dasharray: none; stroke-linecap: butt; stroke-dashoffset: 0; stroke-linejoin: miter; stroke-miterlimit: 4; fill: url(#SVGID_19); fill-rule: nonzero; opacity: 1;"  transform=" translate(-128, -84.15)" d="M 149.333 149.333 C 96 149.333 50.674 122.62 50.674 90.62 C 50.674 58.62 90.667 32 144 32 C 211.357 32 242.572 57.911 242.572 89.911 C 242.572 121.911 208.165 149.333 149.333 149.333 M 128 0 C 58.667 0 0 37.333 0 85.333 C 0 130.667 58.312 168.302 127.646 168.302 C 196.979 168.302 256 133.333 256 85.333 C 256 37.333 197.333 0 128 0" stroke-linecap="round" />
</g>
		<g transform="matrix(1 0 0 1 48.57 -5.62)"  >
<path style="stroke: rgb(0,0,0); stroke-width: 0; stroke-dasharray: none; stroke-linecap: butt; stroke-dashoffset: 0; stroke-linejoin: miter; stroke-miterlimit: 4; fill: rgb(33,101,182); fill-rule: nonzero; opacity: 1;"  transform=" translate(-176.57, -122.38)" d="M 105.946 51.829 L 105.946 192.938 L 148.589 192.938 L 148.589 138.063 C 159.25 138.063 165.6 135.735 172.575 148.515 C 183.236 166.807 196.562 192.938 196.562 192.938 L 247.2 192.938 C 247.2 192.938 215.218 140.676 212.553 138.063 C 207.638 132.836 201.892 132.836 193.897 130.223 C 209.888 127.61 224.796 120.975 229.979 106.759 C 234.51 93.694 233.977 77.074 224.265 65.929 C 215.854 57.11 207.223 51.829 185.901 51.829 L 105.946 51.829 L 105.946 51.829 Z M 148.589 81.217 L 176.573 81.217 C 183.209 81.217 188.566 87.75 188.566 94.282 C 188.566 100.815 183.236 107.348 176.573 107.348 L 148.589 107.348 L 148.589 81.217 L 148.589 81.217 Z" stroke-linecap="round" />
</g>
</g>
</g>
</svg>